# xmcd
#
# Track frame offsets:
#	150
#	18457
#	36145
#	56633
#	73396
#	95169
#	117379
#	132505
#	149992
#	168489
#	182413
#	202148
#
# Disc length: 2981 seconds
#
# Revision: 1
# Processed by: cddbd v1.4PL0 Copyright (c) Steve Scherf et al.
# Submitted via: EasyCDDAExtractor 5.0.6
#
DISCID=c50ba30c
DTITLE=Ibo - I Carry No Stick
DYEAR=1900
DGENRE=
TTITLE0=Cebu Sunrise
TTITLE1=This Could Be
TTITLE2=W.Y.C.D.
TTITLE3=All
TTITLE4=Peace Belongs Everywhere
TTITLE5=Expandurmind
TTITLE6=Lumulutang
TTITLE7=To Think That I...
TTITLE8=I Carry No Stick
TTITLE9=First Night In Beijing
TTITLE10=West, And Into Shifting Sands
TTITLE11=The Lamp Flickered.. And I Remembered
EXTD=
EXTT0=
EXTT1=
EXTT2=
EXTT3=
EXTT4=
EXTT5=
EXTT6=
EXTT7=
EXTT8=
EXTT9=
EXTT10=
EXTT11=
PLAYORDER=
